<?xml version="1.0" encoding="UTF-8" standalone="no"?>
<svg
   xmlns:dc="http://purl.org/dc/elements/1.1/"
   xmlns:cc="http://creativecommons.org/ns#"
   xmlns:rdf="http://www.w3.org/1999/02/22-rdf-syntax-ns#"
   xmlns:svg="http://www.w3.org/2000/svg"
   xmlns="http://www.w3.org/2000/svg"
   xmlns:sodipodi="http://sodipodi.sourceforge.net/DTD/sodipodi-0.dtd"
   xmlns:inkscape="http://www.inkscape.org/namespaces/inkscape"
   width="43"
   height="24"
   version="1.1"
   id="svg845"
   sodipodi:docname="jfrog.svg"
   inkscape:version="1.0.1 (3bc2e813f5, 2020-09-07)">
  <metadata
     id="metadata851">
    <rdf:RDF>
      <cc:Work
         rdf:about="">
        <dc:format>image/svg+xml</dc:format>
        <dc:type
           rdf:resource="http://purl.org/dc/dcmitype/StillImage" />
        <dc:title></dc:title>
      </cc:Work>
    </rdf:RDF>
  </metadata>
  <defs
     id="defs849" />
  <sodipodi:namedview
     pagecolor="#ffffff"
     bordercolor="#666666"
     borderopacity="1"
     objecttolerance="10"
     gridtolerance="10"
     guidetolerance="10"
     inkscape:pageopacity="0"
     inkscape:pageshadow="2"
     inkscape:window-width="2560"
     inkscape:window-height="1346"
     id="namedview847"
     showgrid="false"
     inkscape:zoom="11.484375"
     inkscape:cx="32"
     inkscape:cy="21.551021"
     inkscape:window-x="-11"
     inkscape:window-y="-11"
     inkscape:window-maximized="1"
     inkscape:current-layer="svg845"
     inkscape:document-rotation="0" />
  <path
     d="m 9.7165244,11.898348 c -3.1433159,0.766288 -5.2845121,2.278152 -5.2845121,4.008479 0,1.080286 0.8250788,2.063031 2.1806129,2.829319 -0.4128735,-0.648037 -0.6279951,-1.356202 -0.6279951,-2.06303 0.020042,-1.787783 1.4143251,-3.457982 3.7325624,-4.7741 z m 33.1634866,6.77767 c 0,-1.139743 -0.708163,-2.180613 -1.885988,-3.045109 0.09821,0.354084 0.177044,0.708165 0.177044,1.060912 0,3.241524 -4.538267,6.031425 -10.983233,7.190544 a 20.930944,20.930944 0 0 0 2.259445,0.11759 c 5.756177,-0.01938 10.432736,-2.396404 10.432736,-5.32393 z m -3.713188,-1.768406 c 0,-1.198537 -1.022162,-2.298195 -2.769859,-3.202108 0.412875,0.491038 0.627995,1.022162 0.627995,1.571992 0,2.88811 -6.129632,5.225721 -13.713008,5.225721 -7.564001,0 -13.7130087,-2.338279 -13.7130087,-5.225721 0,-0.374125 0.098207,-0.726871 0.2939552,-1.06091 -1.2179097,0.805704 -1.906032,1.728989 -1.906032,2.711068 0,3.12394 6.9747545,5.658637 15.5796245,5.658637 8.604869,0 15.599665,-2.573445 15.599665,-5.678679 z M 32.36911,16.74393 C 29.186378,18.786918 19.40168,19.573248 15.19812,16.940344 11.897805,14.877314 13.036881,11.595706 3.5868912,4.4058311 2.3489391,3.4625022 3.8227234,2.4617181 4.7460099,3.1097552 c 0.9232864,0.6480371 0.078833,0.805704 1.9441125,2.6723197 3.7719786,3.771979 3.7325626,0.374125 4.3224766,1.6702 1.257327,2.6923611 4.00848,5.4027621 4.00848,5.4027621 2.769859,1.807155 4.970515,2.200654 9.05716,-0.569873 2.593486,-1.748365 1.532576,2.789903 7.877998,-0.491039 2.318237,-1.198535 2.220029,-0.392831 4.577684,-3.6744381 0.982078,-1.356203 2.848692,1.042204 0.72687,1.376244 -0.84512,0.137634 -2.278152,1.0609101 -2.888108,2.5146531 -0.883871,2.180611 -0.511082,3.792021 -2.004241,4.734682 z M 14.727124,11.210893 c -0.785662,-0.354082 -1.610073,-1.6902421 -1.925407,-2.2200291 0.88387,-0.864495 0.530456,-2.298194 0.02004,-3.084525 -0.491038,-0.785662 -1.100327,-0.569871 -1.748365,-1.2960739 -0.66808,-0.7268723 0.255207,-2.6121921 1.100328,-1.1591191 3.163358,5.442178 5.245763,3.182732 7.819208,2.848692 2.475237,-0.313997 4.67656,1.042205 5.34464,-2.7899006 0.11759,-0.6279951 0.72687,-0.7662881 0.785662,0.2552061 0.05879,1.0422045 0.451622,3.5561895 1.807156,3.8701865 1.356202,0.33404 2.455861,-0.313997 2.769859,-0.668079 0.313998,-0.354083 0.491038,-0.313997 0.627995,0.589246 0.137634,0.883869 0.491038,2.121821 2.39707,0.746246 3.909605,-2.789903 2.789903,-3.8701885 4.322478,-4.5963909 0.864495,-0.412873 2.239404,0.9232869 0.255206,1.9254069 -2.829317,1.434368 -3.123941,3.202106 -4.911723,4.322475 -3.00636,1.8859901 -2.082405,0.07884 -6.914628,-0.609287 C 24.610029,9.0897389 24.020781,11.152103 22.56704,10.562856 19.246683,9.1866119 16.908402,9.4625279 14.72779,11.210893 Z M 25.198608,1.1322411 c 0.11759,0.8250779 0.255208,0.8057041 0.54983,0.8644955 0.293956,0.078839 0.668081,-0.392831 0.668081,-0.8250796 0.02004,-0.45162251 -0.196416,-0.72687061 -0.627995,-0.70816481 -0.451623,0.020044 -0.609289,0.2358322 -0.589247,0.66808081 z m 14.53742,1.4737831 c 0.354082,0.3340414 1.296075,0.1175901 1.512533,-0.137616 0.569872,-0.6279951 0.589246,-1.0021204 0.293956,-1.434369 -0.293956,-0.41287301 -0.903914,-0.35408151 -1.512535,0.098205 -0.608619,0.4522888 -0.491038,1.2960742 -0.293954,1.4737831 z m -0.255207,4.1648107 c -0.293954,0.392831 -0.313998,0.688123 -0.09821,0.903913 0.235832,0.235832 0.708165,0.432247 1.042204,0.177044 0.334042,-0.27525 0.334042,-0.668081 0.05879,-1.00212 -0.293955,-0.354082 -0.688122,-0.354082 -1.00212,-0.07884 z M 9.6577334,1.8591117 c 0.4516216,0.137616 0.6680796,0.5698718 1.0422046,0.078839 0.196415,-0.2358322 0.21579,-0.5698718 -0.04008,-0.923287 C 10.502855,0.79887329 9.7559418,0.64053829 9.4419442,0.95586849 9.1279467,1.2712023 9.4219023,1.7809482 9.6577341,1.8597816 Z M 0.4435753,1.5838619 C 1.268654,2.0949439 1.7997775,2.8598959 2.4277726,2.1731093 2.6435625,1.937277 2.899437,1.5250722 2.4478146,0.69932439 2.1137751,0.09003499 1.03349,-0.14579721 0.6600333,0.09003499 0.2665343,0.30649339 -0.2111429,1.1910308 0.4435753,1.5838619 Z m 7.6027494,3.909604 c 0.2552064,0.275248 0.7081647,0.255206 0.9820774,0.09821 0.2552066,-0.157001 0.2157899,-0.569872 -0.040086,-0.9232871 -0.1569988,-0.2157884 -0.6279949,-0.3340395 -0.9433287,0 -0.3153337,0.3340411 -0.1770408,0.6279951 0,0.8250801 z"
     fill="#41bf47"
     id="path843"
     style="stroke-width:0.668079" />
</svg>
